<mxfile host="65bd71144e">
    <diagram id="iaj4QGRVj-I3Li7T95gz" name="Page-1">
        <mxGraphModel dx="892" dy="579" grid="1" gridSize="10" guides="1" tooltips="1" connect="1" arrows="1" fold="1" page="1" pageScale="1" pageWidth="2400" pageHeight="1200" math="0" shadow="0">
            <root>
                <mxCell id="0"/>
                <mxCell id="1" parent="0"/>
                <mxCell id="38" style="edgeStyle=none;html=1;exitX=1;exitY=0.5;exitDx=0;exitDy=0;entryX=0.5;entryY=1;entryDx=0;entryDy=0;" parent="1" source="2" target="37" edge="1">
                    <mxGeometry relative="1" as="geometry"/>
                </mxCell>
                <mxCell id="2" value="Instruction Memory" style="rounded=1;whiteSpace=wrap;html=1;" parent="1" vertex="1">
                    <mxGeometry x="400" y="545" width="80" height="80" as="geometry"/>
                </mxCell>
                <mxCell id="5" value="IF/ID" style="endArrow=none;dashed=1;html=1;dashPattern=1 3;strokeWidth=2;" parent="1" edge="1">
                    <mxGeometry width="50" height="50" relative="1" as="geometry">
                        <mxPoint x="604" y="1064.081081081081" as="sourcePoint"/>
                        <mxPoint x="604" y="143" as="targetPoint"/>
                    </mxGeometry>
                </mxCell>
                <mxCell id="19" style="edgeStyle=none;html=1;exitX=0.5;exitY=0;exitDx=0;exitDy=0;" parent="1" source="14" target="18" edge="1">
                    <mxGeometry relative="1" as="geometry"/>
                </mxCell>
                <mxCell id="14" value="PCMux" style="shape=trapezoid;perimeter=trapezoidPerimeter;whiteSpace=wrap;html=1;fixedSize=1;rotation=90;" parent="1" vertex="1">
                    <mxGeometry x="210" y="535" width="110" height="50" as="geometry"/>
                </mxCell>
                <mxCell id="36" style="edgeStyle=none;html=1;exitX=1;exitY=0.5;exitDx=0;exitDy=0;entryX=0.167;entryY=0.497;entryDx=0;entryDy=0;entryPerimeter=0;" parent="1" source="18" target="30" edge="1">
                    <mxGeometry relative="1" as="geometry"/>
                </mxCell>
                <mxCell id="124" value="PC" style="edgeStyle=none;html=1;entryX=0;entryY=0.25;entryDx=0;entryDy=0;" parent="1" source="18" target="21" edge="1">
                    <mxGeometry relative="1" as="geometry">
                        <mxPoint x="380" y="395" as="targetPoint"/>
                        <Array as="points">
                            <mxPoint x="380" y="560"/>
                            <mxPoint x="380" y="403"/>
                        </Array>
                    </mxGeometry>
                </mxCell>
                <mxCell id="195" style="edgeStyle=none;html=1;entryX=0;entryY=0.5;entryDx=0;entryDy=0;" parent="1" source="18" target="196" edge="1">
                    <mxGeometry relative="1" as="geometry">
                        <mxPoint x="670" y="485" as="targetPoint"/>
                        <Array as="points">
                            <mxPoint x="380" y="560"/>
                            <mxPoint x="380" y="485"/>
                        </Array>
                    </mxGeometry>
                </mxCell>
                <mxCell id="18" value="PC" style="rounded=0;whiteSpace=wrap;html=1;" parent="1" vertex="1">
                    <mxGeometry x="320" y="515" width="40" height="90" as="geometry"/>
                </mxCell>
                <mxCell id="26" value="4" style="edgeStyle=none;html=1;entryX=0;entryY=0.75;entryDx=0;entryDy=0;" parent="1" target="21" edge="1">
                    <mxGeometry relative="1" as="geometry">
                        <mxPoint x="400" y="427" as="sourcePoint"/>
                    </mxGeometry>
                </mxCell>
                <mxCell id="27" value="PC+4" style="edgeStyle=none;html=1;entryX=0.25;entryY=1;entryDx=0;entryDy=0;" parent="1" source="21" target="14" edge="1">
                    <mxGeometry relative="1" as="geometry">
                        <mxPoint x="210" y="545" as="targetPoint"/>
                        <Array as="points">
                            <mxPoint x="520" y="415"/>
                            <mxPoint x="520" y="345"/>
                            <mxPoint x="210" y="345"/>
                            <mxPoint x="210" y="533"/>
                        </Array>
                    </mxGeometry>
                </mxCell>
                <mxCell id="21" value="ADD" style="shape=step;perimeter=stepPerimeter;whiteSpace=wrap;html=1;fixedSize=1;" parent="1" vertex="1">
                    <mxGeometry x="420" y="375" width="70" height="80" as="geometry"/>
                </mxCell>
                <mxCell id="28" value="0" style="text;html=1;strokeColor=none;fillColor=none;align=center;verticalAlign=middle;whiteSpace=wrap;rounded=0;" parent="1" vertex="1">
                    <mxGeometry x="240" y="520" width="20" height="15" as="geometry"/>
                </mxCell>
                <mxCell id="29" value="1" style="text;html=1;strokeColor=none;fillColor=none;align=center;verticalAlign=middle;whiteSpace=wrap;rounded=0;" parent="1" vertex="1">
                    <mxGeometry x="240" y="581" width="20" height="15" as="geometry"/>
                </mxCell>
                <mxCell id="30" value="Addr" style="text;html=1;strokeColor=none;fillColor=none;align=center;verticalAlign=middle;whiteSpace=wrap;rounded=0;" parent="1" vertex="1">
                    <mxGeometry x="390" y="545" width="60" height="30" as="geometry"/>
                </mxCell>
                <mxCell id="43" value="Opcode, Funct3, Funct7" style="edgeStyle=none;html=1;exitX=0.5;exitY=0;exitDx=0;exitDy=0;entryX=0;entryY=0.5;entryDx=0;entryDy=0;" parent="1" source="37" target="42" edge="1">
                    <mxGeometry relative="1" as="geometry">
                        <Array as="points">
                            <mxPoint x="620" y="585"/>
                            <mxPoint x="620" y="365"/>
                        </Array>
                    </mxGeometry>
                </mxCell>
                <mxCell id="45" style="edgeStyle=none;html=1;entryX=0;entryY=0.5;entryDx=0;entryDy=0;" parent="1" source="37" target="41" edge="1">
                    <mxGeometry relative="1" as="geometry"/>
                </mxCell>
                <mxCell id="49" value="rs1, rs2" style="edgeLabel;html=1;align=center;verticalAlign=middle;resizable=0;points=[];" parent="45" vertex="1" connectable="0">
                    <mxGeometry x="0.1262" relative="1" as="geometry">
                        <mxPoint x="21" as="offset"/>
                    </mxGeometry>
                </mxCell>
                <mxCell id="82" style="edgeStyle=none;html=1;exitX=0.5;exitY=0;exitDx=0;exitDy=0;entryX=0;entryY=0.5;entryDx=0;entryDy=0;" parent="1" source="37" target="70" edge="1">
                    <mxGeometry relative="1" as="geometry">
                        <Array as="points">
                            <mxPoint x="620" y="585"/>
                            <mxPoint x="620" y="710"/>
                        </Array>
                        <mxPoint x="709.9999999999998" y="710" as="targetPoint"/>
                    </mxGeometry>
                </mxCell>
                <mxCell id="37" value="IR" style="rounded=0;whiteSpace=wrap;html=1;direction=south;" parent="1" vertex="1">
                    <mxGeometry x="530" y="535" width="50" height="100" as="geometry"/>
                </mxCell>
                <mxCell id="41" value="Register&lt;br&gt;File" style="whiteSpace=wrap;html=1;aspect=fixed;" parent="1" vertex="1">
                    <mxGeometry x="710" y="507.5" width="155" height="155" as="geometry"/>
                </mxCell>
                <mxCell id="56" value="MemToReg&lt;br&gt;MemWrite" style="edgeStyle=none;html=1;exitX=0.5;exitY=0;exitDx=0;exitDy=0;entryX=0;entryY=0.5;entryDx=0;entryDy=0;" parent="1" source="42" target="44" edge="1">
                    <mxGeometry relative="1" as="geometry">
                        <Array as="points">
                            <mxPoint x="720" y="255"/>
                        </Array>
                    </mxGeometry>
                </mxCell>
                <mxCell id="57" value="Branch&lt;br&gt;MemWrite&lt;br&gt;MemRead" style="edgeStyle=none;html=1;exitX=1;exitY=0;exitDx=0;exitDy=0;entryX=0;entryY=0.25;entryDx=0;entryDy=0;" parent="1" source="42" target="46" edge="1">
                    <mxGeometry relative="1" as="geometry">
                        <Array as="points">
                            <mxPoint x="748" y="315"/>
                        </Array>
                    </mxGeometry>
                </mxCell>
                <mxCell id="58" value="ALUOp&lt;br&gt;ALUMuxSel" style="edgeStyle=none;html=1;exitX=1;exitY=0.5;exitDx=0;exitDy=0;entryX=0;entryY=0.75;entryDx=0;entryDy=0;" parent="1" source="42" target="47" edge="1">
                    <mxGeometry relative="1" as="geometry">
                        <Array as="points">
                            <mxPoint x="760" y="395"/>
                        </Array>
                    </mxGeometry>
                </mxCell>
                <mxCell id="42" value="Control&lt;br&gt;ROM" style="ellipse;whiteSpace=wrap;html=1;aspect=fixed;" parent="1" vertex="1">
                    <mxGeometry x="680" y="325" width="80" height="80" as="geometry"/>
                </mxCell>
                <mxCell id="150" value="MemToReg" style="edgeStyle=none;html=1;exitX=1;exitY=0.5;exitDx=0;exitDy=0;entryX=0;entryY=0.5;entryDx=0;entryDy=0;" parent="1" source="44" target="145" edge="1">
                    <mxGeometry relative="1" as="geometry">
                        <Array as="points">
                            <mxPoint x="1020" y="255"/>
                            <mxPoint x="1020" y="165"/>
                            <mxPoint x="1240" y="165"/>
                            <mxPoint x="1240" y="395"/>
                        </Array>
                    </mxGeometry>
                </mxCell>
                <mxCell id="44" value="WB" style="rounded=0;whiteSpace=wrap;html=1;" parent="1" vertex="1">
                    <mxGeometry x="859" y="235" width="50" height="40" as="geometry"/>
                </mxCell>
                <mxCell id="149" style="edgeStyle=none;html=1;entryX=0;entryY=0.5;entryDx=0;entryDy=0;" parent="1" source="46" target="146" edge="1">
                    <mxGeometry relative="1" as="geometry">
                        <Array as="points">
                            <mxPoint x="930" y="355"/>
                        </Array>
                    </mxGeometry>
                </mxCell>
                <mxCell id="46" value="MEM" style="rounded=0;whiteSpace=wrap;html=1;" parent="1" vertex="1">
                    <mxGeometry x="860" y="305" width="50" height="40" as="geometry"/>
                </mxCell>
                <mxCell id="112" style="edgeStyle=none;html=1;entryX=0.5;entryY=0;entryDx=0;entryDy=0;" parent="1" source="47" target="93" edge="1">
                    <mxGeometry relative="1" as="geometry">
                        <mxPoint x="1160" y="755" as="targetPoint"/>
                        <Array as="points">
                            <mxPoint x="1160" y="385"/>
                            <mxPoint x="1160" y="655"/>
                            <mxPoint x="1105" y="665"/>
                        </Array>
                    </mxGeometry>
                </mxCell>
                <mxCell id="113" value="ALUOp" style="edgeLabel;html=1;align=center;verticalAlign=middle;resizable=0;points=[];" parent="112" vertex="1" connectable="0">
                    <mxGeometry x="0.8128" y="2" relative="1" as="geometry">
                        <mxPoint x="-3" as="offset"/>
                    </mxGeometry>
                </mxCell>
                <mxCell id="115" value="ALUMuxSel" style="edgeStyle=none;html=1;exitX=1;exitY=0.5;exitDx=0;exitDy=0;entryX=0;entryY=0.5;entryDx=0;entryDy=0;" parent="1" edge="1">
                    <mxGeometry x="0.8598" relative="1" as="geometry">
                        <Array as="points">
                            <mxPoint x="1120" y="386"/>
                        </Array>
                        <mxPoint as="offset"/>
                        <mxPoint x="911" y="386" as="sourcePoint"/>
                        <mxPoint x="1120" y="583.5" as="targetPoint"/>
                    </mxGeometry>
                </mxCell>
                <mxCell id="47" value="EX" style="rounded=0;whiteSpace=wrap;html=1;" parent="1" vertex="1">
                    <mxGeometry x="861" y="365" width="50" height="40" as="geometry"/>
                </mxCell>
                <mxCell id="101" style="edgeStyle=none;html=1;exitX=1;exitY=0.5;exitDx=0;exitDy=0;entryX=0.147;entryY=0.206;entryDx=0;entryDy=0;entryPerimeter=0;" parent="1" source="53" target="84" edge="1">
                    <mxGeometry relative="1" as="geometry">
                        <Array as="points">
                            <mxPoint x="970" y="546"/>
                            <mxPoint x="970" y="504"/>
                        </Array>
                    </mxGeometry>
                </mxCell>
                <mxCell id="53" value="RD1" style="rounded=0;whiteSpace=wrap;html=1;" parent="1" vertex="1">
                    <mxGeometry x="900" y="536" width="40" height="20" as="geometry"/>
                </mxCell>
                <mxCell id="107" style="edgeStyle=none;html=1;exitX=1;exitY=0.5;exitDx=0;exitDy=0;entryX=0.25;entryY=1;entryDx=0;entryDy=0;" parent="1" source="59" target="86" edge="1">
                    <mxGeometry relative="1" as="geometry">
                        <Array as="points">
                            <mxPoint x="970" y="624"/>
                            <mxPoint x="1010" y="624"/>
                            <mxPoint x="1010" y="595"/>
                        </Array>
                    </mxGeometry>
                </mxCell>
                <mxCell id="165" style="edgeStyle=none;html=1;exitX=1;exitY=0.5;exitDx=0;exitDy=0;entryX=0;entryY=0.5;entryDx=0;entryDy=0;" parent="1" source="59" target="164" edge="1">
                    <mxGeometry relative="1" as="geometry">
                        <Array as="points">
                            <mxPoint x="1040" y="624"/>
                            <mxPoint x="1040" y="745"/>
                            <mxPoint x="1160" y="745"/>
                            <mxPoint x="1260" y="745"/>
                            <mxPoint x="1260" y="690"/>
                        </Array>
                    </mxGeometry>
                </mxCell>
                <mxCell id="59" value="RD2" style="rounded=0;whiteSpace=wrap;html=1;" parent="1" vertex="1">
                    <mxGeometry x="900" y="614" width="40" height="20" as="geometry"/>
                </mxCell>
                <mxCell id="63" value="" style="endArrow=classic;html=1;exitX=1;exitY=0.75;exitDx=0;exitDy=0;entryX=0;entryY=0.5;entryDx=0;entryDy=0;" parent="1" source="41" target="59" edge="1">
                    <mxGeometry width="50" height="50" relative="1" as="geometry">
                        <mxPoint x="890" y="600" as="sourcePoint"/>
                        <mxPoint x="890" y="624" as="targetPoint"/>
                    </mxGeometry>
                </mxCell>
                <mxCell id="65" value="" style="endArrow=classic;html=1;exitX=1;exitY=0.25;exitDx=0;exitDy=0;entryX=0;entryY=0.5;entryDx=0;entryDy=0;" parent="1" source="41" target="53" edge="1">
                    <mxGeometry width="50" height="50" relative="1" as="geometry">
                        <mxPoint x="880" y="557.5" as="sourcePoint"/>
                        <mxPoint x="890" y="546" as="targetPoint"/>
                    </mxGeometry>
                </mxCell>
                <mxCell id="68" style="edgeStyle=none;html=1;exitX=0.5;exitY=0;exitDx=0;exitDy=0;entryX=0;entryY=0.5;entryDx=0;entryDy=0;" parent="1" source="37" target="71" edge="1">
                    <mxGeometry relative="1" as="geometry">
                        <mxPoint x="700" y="755" as="targetPoint"/>
                        <mxPoint x="590" y="595" as="sourcePoint"/>
                        <Array as="points">
                            <mxPoint x="620" y="585"/>
                            <mxPoint x="620" y="755"/>
                        </Array>
                    </mxGeometry>
                </mxCell>
                <mxCell id="69" style="edgeStyle=none;html=1;exitX=0.5;exitY=0;exitDx=0;exitDy=0;entryX=0;entryY=0.5;entryDx=0;entryDy=0;" parent="1" source="37" target="72" edge="1">
                    <mxGeometry relative="1" as="geometry">
                        <mxPoint x="700" y="785" as="targetPoint"/>
                        <mxPoint x="590" y="595" as="sourcePoint"/>
                        <Array as="points">
                            <mxPoint x="620" y="585"/>
                            <mxPoint x="620" y="790"/>
                        </Array>
                    </mxGeometry>
                </mxCell>
                <mxCell id="81" value="INST" style="edgeLabel;html=1;align=center;verticalAlign=middle;resizable=0;points=[];" parent="69" vertex="1" connectable="0">
                    <mxGeometry x="-0.2125" y="1" relative="1" as="geometry">
                        <mxPoint x="-1" y="-32" as="offset"/>
                    </mxGeometry>
                </mxCell>
                <mxCell id="123" style="edgeStyle=none;html=1;entryX=0;entryY=0.75;entryDx=0;entryDy=0;exitX=1;exitY=0.5;exitDx=0;exitDy=0;" parent="1" source="70" target="116" edge="1">
                    <mxGeometry relative="1" as="geometry">
                        <Array as="points">
                            <mxPoint x="1021" y="710"/>
                            <mxPoint x="1021" y="287"/>
                        </Array>
                        <mxPoint x="870" y="725" as="sourcePoint"/>
                        <mxPoint x="1020.6600000000001" y="341" as="targetPoint"/>
                    </mxGeometry>
                </mxCell>
                <mxCell id="174" style="edgeStyle=none;html=1;entryX=0.75;entryY=1;entryDx=0;entryDy=0;exitX=1;exitY=0.5;exitDx=0;exitDy=0;" parent="1" source="70" target="86" edge="1">
                    <mxGeometry relative="1" as="geometry">
                        <Array as="points">
                            <mxPoint x="1020" y="710"/>
                            <mxPoint x="1020" y="640"/>
                        </Array>
                        <mxPoint x="860" y="705" as="sourcePoint"/>
                    </mxGeometry>
                </mxCell>
                <mxCell id="70" value="imm_*" style="rounded=0;whiteSpace=wrap;html=1;" parent="1" vertex="1">
                    <mxGeometry x="690" y="700" width="70" height="20" as="geometry"/>
                </mxCell>
                <mxCell id="203" style="edgeStyle=none;html=1;entryX=0;entryY=0.5;entryDx=0;entryDy=0;" parent="1" source="71" target="93" edge="1">
                    <mxGeometry relative="1" as="geometry">
                        <Array as="points">
                            <mxPoint x="1050" y="755"/>
                            <mxPoint x="1050" y="710"/>
                        </Array>
                    </mxGeometry>
                </mxCell>
                <mxCell id="71" value="Funct3" style="rounded=0;whiteSpace=wrap;html=1;" parent="1" vertex="1">
                    <mxGeometry x="790" y="745" width="70" height="20" as="geometry"/>
                </mxCell>
                <mxCell id="96" style="edgeStyle=none;html=1;entryX=0;entryY=0.5;entryDx=0;entryDy=0;" parent="1" source="72" target="109" edge="1">
                    <mxGeometry relative="1" as="geometry">
                        <mxPoint x="1001.6300000000001" y="792.7025000000001" as="targetPoint"/>
                        <Array as="points">
                            <mxPoint x="870" y="793"/>
                        </Array>
                    </mxGeometry>
                </mxCell>
                <mxCell id="72" value="RD" style="rounded=0;whiteSpace=wrap;html=1;" parent="1" vertex="1">
                    <mxGeometry x="791" y="780" width="70" height="20" as="geometry"/>
                </mxCell>
                <mxCell id="73" value="ID/EX" style="endArrow=none;dashed=1;html=1;dashPattern=1 3;strokeWidth=2;" parent="1" edge="1">
                    <mxGeometry width="50" height="50" relative="1" as="geometry">
                        <mxPoint x="977" y="1064.0810810810808" as="sourcePoint"/>
                        <mxPoint x="977" y="143" as="targetPoint"/>
                    </mxGeometry>
                </mxCell>
                <mxCell id="130" style="edgeStyle=none;html=1;exitX=1;exitY=0.5;exitDx=0;exitDy=0;entryX=0.5;entryY=1;entryDx=0;entryDy=0;" parent="1" source="84" target="126" edge="1">
                    <mxGeometry relative="1" as="geometry"/>
                </mxCell>
                <mxCell id="135" style="edgeStyle=none;html=1;exitX=1;exitY=0.5;exitDx=0;exitDy=0;entryX=0.5;entryY=1;entryDx=0;entryDy=0;" parent="1" source="84" target="134" edge="1">
                    <mxGeometry relative="1" as="geometry">
                        <Array as="points">
                            <mxPoint x="1270" y="528"/>
                            <mxPoint x="1270" y="495"/>
                        </Array>
                    </mxGeometry>
                </mxCell>
                <mxCell id="84" value="ALU &amp;amp;&lt;br&gt;CMP" style="shape=step;perimeter=stepPerimeter;whiteSpace=wrap;html=1;fixedSize=1;" parent="1" vertex="1">
                    <mxGeometry x="1190" y="487.5" width="71" height="80" as="geometry"/>
                </mxCell>
                <mxCell id="104" style="edgeStyle=none;html=1;exitX=0.5;exitY=0;exitDx=0;exitDy=0;entryX=0;entryY=0.75;entryDx=0;entryDy=0;" parent="1" source="86" target="84" edge="1">
                    <mxGeometry relative="1" as="geometry">
                        <Array as="points">
                            <mxPoint x="1170" y="615"/>
                            <mxPoint x="1170" y="540"/>
                        </Array>
                    </mxGeometry>
                </mxCell>
                <mxCell id="86" value="ALU Mux" style="shape=trapezoid;perimeter=trapezoidPerimeter;whiteSpace=wrap;html=1;fixedSize=1;direction=south;" parent="1" vertex="1">
                    <mxGeometry x="1090" y="572.5" width="60" height="90" as="geometry"/>
                </mxCell>
                <mxCell id="119" value="ALUCntrl" style="edgeStyle=none;html=1;exitX=1;exitY=0.5;exitDx=0;exitDy=0;entryX=0.379;entryY=1.006;entryDx=0;entryDy=0;entryPerimeter=0;" parent="1" source="93" target="84" edge="1">
                    <mxGeometry x="0.6695" relative="1" as="geometry">
                        <Array as="points">
                            <mxPoint x="1217" y="710"/>
                        </Array>
                        <mxPoint as="offset"/>
                    </mxGeometry>
                </mxCell>
                <mxCell id="93" value="ALU Control" style="ellipse;whiteSpace=wrap;html=1;" parent="1" vertex="1">
                    <mxGeometry x="1075" y="680" width="60" height="60" as="geometry"/>
                </mxCell>
                <mxCell id="182" style="edgeStyle=none;html=1;entryX=0;entryY=0.5;entryDx=0;entryDy=0;" parent="1" source="109" target="181" edge="1">
                    <mxGeometry relative="1" as="geometry">
                        <Array as="points">
                            <mxPoint x="1270" y="790"/>
                            <mxPoint x="1270" y="812"/>
                        </Array>
                    </mxGeometry>
                </mxCell>
                <mxCell id="109" value="RD" style="rounded=0;whiteSpace=wrap;html=1;" parent="1" vertex="1">
                    <mxGeometry x="1080" y="772.0000000000001" width="50" height="40" as="geometry"/>
                </mxCell>
                <mxCell id="127" style="edgeStyle=none;html=1;entryX=0;entryY=0.5;entryDx=0;entryDy=0;" parent="1" source="116" target="129" edge="1">
                    <mxGeometry relative="1" as="geometry">
                        <mxPoint x="1170" y="275" as="targetPoint"/>
                    </mxGeometry>
                </mxCell>
                <mxCell id="116" value="ADD" style="shape=step;perimeter=stepPerimeter;whiteSpace=wrap;html=1;fixedSize=1;" parent="1" vertex="1">
                    <mxGeometry x="1070" y="235" width="70" height="80" as="geometry"/>
                </mxCell>
                <mxCell id="160" style="edgeStyle=none;html=1;entryX=0;entryY=0.25;entryDx=0;entryDy=0;" parent="1" source="126" target="154" edge="1">
                    <mxGeometry relative="1" as="geometry">
                        <Array as="points">
                            <mxPoint x="1450" y="528"/>
                            <mxPoint x="1450" y="588"/>
                        </Array>
                    </mxGeometry>
                </mxCell>
                <mxCell id="163" style="edgeStyle=none;html=1;entryX=0.5;entryY=1;entryDx=0;entryDy=0;" parent="1" source="126" target="162" edge="1">
                    <mxGeometry relative="1" as="geometry">
                        <Array as="points">
                            <mxPoint x="1450" y="528"/>
                            <mxPoint x="1450" y="750"/>
                        </Array>
                    </mxGeometry>
                </mxCell>
                <mxCell id="126" value="ALUOut" style="rounded=0;whiteSpace=wrap;html=1;direction=south;" parent="1" vertex="1">
                    <mxGeometry x="1290" y="497.5" width="50" height="60" as="geometry"/>
                </mxCell>
                <mxCell id="131" style="edgeStyle=none;html=1;entryX=0.75;entryY=1;entryDx=0;entryDy=0;exitX=1;exitY=0.5;exitDx=0;exitDy=0;" parent="1" source="129" target="14" edge="1">
                    <mxGeometry relative="1" as="geometry">
                        <mxPoint x="230" y="585" as="targetPoint"/>
                        <mxPoint x="1278" y="275" as="sourcePoint"/>
                        <Array as="points">
                            <mxPoint x="1430" y="275"/>
                            <mxPoint x="1430" y="215"/>
                            <mxPoint x="200" y="215"/>
                            <mxPoint x="200" y="588"/>
                        </Array>
                    </mxGeometry>
                </mxCell>
                <mxCell id="129" value="PC+imm" style="rounded=0;whiteSpace=wrap;html=1;" parent="1" vertex="1">
                    <mxGeometry x="1310" y="260" width="55" height="30" as="geometry"/>
                </mxCell>
                <mxCell id="136" value="0" style="edgeStyle=none;html=1;exitX=0.5;exitY=0;exitDx=0;exitDy=0;entryX=0.5;entryY=0;entryDx=0;entryDy=0;" parent="1" target="134" edge="1">
                    <mxGeometry relative="1" as="geometry">
                        <mxPoint x="1270.8260869565217" y="405" as="sourcePoint"/>
                    </mxGeometry>
                </mxCell>
                <mxCell id="139" style="edgeStyle=none;html=1;exitX=1;exitY=0.5;exitDx=0;exitDy=0;entryX=0.5;entryY=1;entryDx=0;entryDy=0;" parent="1" source="134" target="138" edge="1">
                    <mxGeometry relative="1" as="geometry"/>
                </mxCell>
                <mxCell id="134" value="=" style="ellipse;whiteSpace=wrap;html=1;aspect=fixed;" parent="1" vertex="1">
                    <mxGeometry x="1261" y="435" width="20" height="20" as="geometry"/>
                </mxCell>
                <mxCell id="143" style="edgeStyle=none;html=1;entryX=0;entryY=0.75;entryDx=0;entryDy=0;entryPerimeter=0;" parent="1" source="138" target="141" edge="1">
                    <mxGeometry relative="1" as="geometry">
                        <Array as="points">
                            <mxPoint x="1420" y="445"/>
                            <mxPoint x="1420" y="500"/>
                        </Array>
                    </mxGeometry>
                </mxCell>
                <mxCell id="138" value="ALUZero" style="rounded=0;whiteSpace=wrap;html=1;direction=south;" parent="1" vertex="1">
                    <mxGeometry x="1310" y="435" width="55" height="20" as="geometry"/>
                </mxCell>
                <mxCell id="152" style="edgeStyle=none;html=1;entryX=1;entryY=0.5;entryDx=0;entryDy=0;" parent="1" source="141" target="14" edge="1">
                    <mxGeometry relative="1" as="geometry">
                        <mxPoint x="264" y="625" as="targetPoint"/>
                        <Array as="points">
                            <mxPoint x="1540" y="485"/>
                            <mxPoint x="1540" y="855"/>
                            <mxPoint x="264" y="855"/>
                        </Array>
                    </mxGeometry>
                </mxCell>
                <mxCell id="153" value="PCMuxSel" style="edgeLabel;html=1;align=center;verticalAlign=middle;resizable=0;points=[];" parent="152" vertex="1" connectable="0">
                    <mxGeometry x="0.9409" y="1" relative="1" as="geometry">
                        <mxPoint as="offset"/>
                    </mxGeometry>
                </mxCell>
                <mxCell id="141" value="" style="shape=or;whiteSpace=wrap;html=1;" parent="1" vertex="1">
                    <mxGeometry x="1450" y="455" width="60" height="60" as="geometry"/>
                </mxCell>
                <mxCell id="144" value="EX/Mem" style="endArrow=none;dashed=1;html=1;dashPattern=1 3;strokeWidth=2;" parent="1" edge="1">
                    <mxGeometry width="50" height="50" relative="1" as="geometry">
                        <mxPoint x="1390" y="1061.0810810810808" as="sourcePoint"/>
                        <mxPoint x="1390" y="140" as="targetPoint"/>
                    </mxGeometry>
                </mxCell>
                <mxCell id="157" style="edgeStyle=none;html=1;exitX=1;exitY=0.75;exitDx=0;exitDy=0;entryX=0;entryY=0.5;entryDx=0;entryDy=0;" parent="1" source="145" target="155" edge="1">
                    <mxGeometry relative="1" as="geometry"/>
                </mxCell>
                <mxCell id="145" value="WB" style="rounded=0;whiteSpace=wrap;html=1;" parent="1" vertex="1">
                    <mxGeometry x="1320" y="375" width="50" height="40" as="geometry"/>
                </mxCell>
                <mxCell id="151" value="Branch" style="edgeStyle=none;html=1;entryX=-0.015;entryY=0.329;entryDx=0;entryDy=0;entryPerimeter=0;" parent="1" source="146" target="141" edge="1">
                    <mxGeometry x="-0.0959" relative="1" as="geometry">
                        <Array as="points">
                            <mxPoint x="1430" y="355"/>
                            <mxPoint x="1430" y="475"/>
                        </Array>
                        <mxPoint as="offset"/>
                    </mxGeometry>
                </mxCell>
                <mxCell id="168" value="MemRead" style="edgeStyle=none;html=1;exitX=1;exitY=0.5;exitDx=0;exitDy=0;entryX=0.25;entryY=0;entryDx=0;entryDy=0;" parent="1" source="146" target="154" edge="1">
                    <mxGeometry x="0.6954" relative="1" as="geometry">
                        <mxPoint x="1640" y="545" as="targetPoint"/>
                        <Array as="points">
                            <mxPoint x="1599" y="355"/>
                        </Array>
                        <mxPoint as="offset"/>
                    </mxGeometry>
                </mxCell>
                <mxCell id="146" value="MEM" style="rounded=0;whiteSpace=wrap;html=1;" parent="1" vertex="1">
                    <mxGeometry x="1320" y="335" width="50" height="40" as="geometry"/>
                </mxCell>
                <mxCell id="167" value="MemWrite" style="edgeStyle=none;html=1;exitX=1;exitY=0.25;exitDx=0;exitDy=0;" parent="1" source="146" target="154" edge="1">
                    <mxGeometry x="0.854" relative="1" as="geometry">
                        <Array as="points">
                            <mxPoint x="1400" y="345"/>
                            <mxPoint x="1400" y="435"/>
                            <mxPoint x="1638" y="435"/>
                        </Array>
                        <mxPoint as="offset"/>
                    </mxGeometry>
                </mxCell>
                <mxCell id="154" value="Data Memory" style="whiteSpace=wrap;html=1;aspect=fixed;" parent="1" vertex="1">
                    <mxGeometry x="1560" y="549.5" width="155" height="155" as="geometry"/>
                </mxCell>
                <mxCell id="180" value="MemToReg" style="edgeStyle=none;html=1;exitX=1;exitY=0.5;exitDx=0;exitDy=0;entryX=0;entryY=0.5;entryDx=0;entryDy=0;" parent="1" source="155" target="177" edge="1">
                    <mxGeometry relative="1" as="geometry">
                        <Array as="points">
                            <mxPoint x="2090" y="405"/>
                        </Array>
                    </mxGeometry>
                </mxCell>
                <mxCell id="187" style="edgeStyle=none;html=1;entryX=0.75;entryY=0;entryDx=0;entryDy=0;" parent="1" source="155" target="41" edge="1">
                    <mxGeometry relative="1" as="geometry">
                        <mxPoint x="780" y="485" as="targetPoint"/>
                        <Array as="points">
                            <mxPoint x="1660" y="145"/>
                            <mxPoint x="826" y="145"/>
                        </Array>
                    </mxGeometry>
                </mxCell>
                <mxCell id="188" value="RegWrite" style="edgeLabel;html=1;align=center;verticalAlign=middle;resizable=0;points=[];" parent="187" vertex="1" connectable="0">
                    <mxGeometry x="0.9571" relative="1" as="geometry">
                        <mxPoint as="offset"/>
                    </mxGeometry>
                </mxCell>
                <mxCell id="155" value="WB" style="rounded=0;whiteSpace=wrap;html=1;" parent="1" vertex="1">
                    <mxGeometry x="1630" y="385" width="50" height="40" as="geometry"/>
                </mxCell>
                <mxCell id="159" value="Write Data" style="text;html=1;align=center;verticalAlign=middle;resizable=0;points=[];autosize=1;strokeColor=none;fillColor=none;" parent="1" vertex="1">
                    <mxGeometry x="1560" y="655" width="70" height="20" as="geometry"/>
                </mxCell>
                <mxCell id="161" value="Address" style="text;html=1;align=center;verticalAlign=middle;resizable=0;points=[];autosize=1;strokeColor=none;fillColor=none;" parent="1" vertex="1">
                    <mxGeometry x="1560" y="578.5" width="60" height="20" as="geometry"/>
                </mxCell>
                <mxCell id="179" style="edgeStyle=none;html=1;entryX=0.75;entryY=1;entryDx=0;entryDy=0;" parent="1" source="162" target="177" edge="1">
                    <mxGeometry relative="1" as="geometry">
                        <Array as="points">
                            <mxPoint x="1930" y="750"/>
                            <mxPoint x="1930" y="610"/>
                        </Array>
                        <mxPoint x="2020" y="615" as="targetPoint"/>
                    </mxGeometry>
                </mxCell>
                <mxCell id="162" value="ALUOut" style="rounded=0;whiteSpace=wrap;html=1;direction=south;" parent="1" vertex="1">
                    <mxGeometry x="1565" y="720" width="50" height="60" as="geometry"/>
                </mxCell>
                <mxCell id="166" style="edgeStyle=none;html=1;exitX=1;exitY=0.5;exitDx=0;exitDy=0;entryX=0;entryY=0.75;entryDx=0;entryDy=0;" parent="1" source="164" target="154" edge="1">
                    <mxGeometry relative="1" as="geometry">
                        <Array as="points">
                            <mxPoint x="1440" y="690"/>
                            <mxPoint x="1440" y="666"/>
                        </Array>
                    </mxGeometry>
                </mxCell>
                <mxCell id="164" value="RD2" style="rounded=0;whiteSpace=wrap;html=1;" parent="1" vertex="1">
                    <mxGeometry x="1310" y="680" width="40" height="20" as="geometry"/>
                </mxCell>
                <mxCell id="170" value="" style="endArrow=classic;html=1;exitX=1;exitY=0.25;exitDx=0;exitDy=0;" parent="1" source="154" edge="1">
                    <mxGeometry width="50" height="50" relative="1" as="geometry">
                        <mxPoint x="1760" y="555" as="sourcePoint"/>
                        <mxPoint x="1740" y="588" as="targetPoint"/>
                    </mxGeometry>
                </mxCell>
                <mxCell id="171" value="Read Data" style="text;html=1;align=center;verticalAlign=middle;resizable=0;points=[];autosize=1;strokeColor=none;fillColor=none;" parent="1" vertex="1">
                    <mxGeometry x="1645" y="578.5" width="70" height="20" as="geometry"/>
                </mxCell>
                <mxCell id="172" value="Mem/WB" style="endArrow=none;dashed=1;html=1;dashPattern=1 3;strokeWidth=2;" parent="1" edge="1">
                    <mxGeometry width="50" height="50" relative="1" as="geometry">
                        <mxPoint x="1820" y="1063.0810810810813" as="sourcePoint"/>
                        <mxPoint x="1820" y="142.00000000000003" as="targetPoint"/>
                    </mxGeometry>
                </mxCell>
                <mxCell id="178" style="edgeStyle=none;html=1;entryX=0.23;entryY=1.013;entryDx=0;entryDy=0;entryPerimeter=0;" parent="1" source="173" target="177" edge="1">
                    <mxGeometry relative="1" as="geometry">
                        <Array as="points">
                            <mxPoint x="1880" y="585"/>
                            <mxPoint x="1880" y="547"/>
                        </Array>
                        <mxPoint x="2030" y="550" as="targetPoint"/>
                    </mxGeometry>
                </mxCell>
                <mxCell id="173" value="Read Data" style="rounded=0;whiteSpace=wrap;html=1;" parent="1" vertex="1">
                    <mxGeometry x="1740" y="570" width="40" height="30" as="geometry"/>
                </mxCell>
                <mxCell id="186" style="edgeStyle=none;html=1;exitX=0.5;exitY=0;exitDx=0;exitDy=0;entryX=0;entryY=0.25;entryDx=0;entryDy=0;" parent="1" source="177" target="41" edge="1">
                    <mxGeometry relative="1" as="geometry">
                        <Array as="points">
                            <mxPoint x="2170" y="580"/>
                            <mxPoint x="2170" y="995"/>
                            <mxPoint x="650" y="995"/>
                            <mxPoint x="650" y="546"/>
                        </Array>
                    </mxGeometry>
                </mxCell>
                <mxCell id="189" value="Write Data" style="edgeLabel;html=1;align=center;verticalAlign=middle;resizable=0;points=[];" parent="186" vertex="1" connectable="0">
                    <mxGeometry x="0.9631" relative="1" as="geometry">
                        <mxPoint x="-6" as="offset"/>
                    </mxGeometry>
                </mxCell>
                <mxCell id="177" value="RegFileMux" style="shape=trapezoid;perimeter=trapezoidPerimeter;whiteSpace=wrap;html=1;fixedSize=1;direction=south;" parent="1" vertex="1">
                    <mxGeometry x="2049" y="519.5" width="81" height="120" as="geometry"/>
                </mxCell>
                <mxCell id="184" style="edgeStyle=none;html=1;entryX=0.012;entryY=0.815;entryDx=0;entryDy=0;entryPerimeter=0;" parent="1" source="181" target="41" edge="1">
                    <mxGeometry relative="1" as="geometry">
                        <mxPoint x="680" y="645" as="targetPoint"/>
                        <Array as="points">
                            <mxPoint x="1900" y="812"/>
                            <mxPoint x="1900" y="895"/>
                            <mxPoint x="650" y="895"/>
                            <mxPoint x="650" y="634"/>
                        </Array>
                    </mxGeometry>
                </mxCell>
                <mxCell id="185" value="Write Register" style="edgeLabel;html=1;align=center;verticalAlign=middle;resizable=0;points=[];" parent="184" vertex="1" connectable="0">
                    <mxGeometry x="0.9121" relative="1" as="geometry">
                        <mxPoint x="12" y="-24" as="offset"/>
                    </mxGeometry>
                </mxCell>
                <mxCell id="181" value="RD" style="rounded=0;whiteSpace=wrap;html=1;" parent="1" vertex="1">
                    <mxGeometry x="1565" y="792.0300000000001" width="50" height="40" as="geometry"/>
                </mxCell>
                <mxCell id="190" value="1" style="text;html=1;strokeColor=none;fillColor=none;align=center;verticalAlign=middle;whiteSpace=wrap;rounded=0;" parent="1" vertex="1">
                    <mxGeometry x="2049" y="598.5" width="20" height="22.5" as="geometry"/>
                </mxCell>
                <mxCell id="191" value="0" style="text;html=1;align=center;verticalAlign=middle;resizable=0;points=[];autosize=1;strokeColor=none;fillColor=none;" parent="1" vertex="1">
                    <mxGeometry x="2049" y="536" width="20" height="20" as="geometry"/>
                </mxCell>
                <mxCell id="198" style="edgeStyle=none;html=1;entryX=0;entryY=0.5;entryDx=0;entryDy=0;" parent="1" source="196" target="197" edge="1">
                    <mxGeometry relative="1" as="geometry">
                        <Array as="points">
                            <mxPoint x="720" y="485"/>
                            <mxPoint x="720" y="445"/>
                        </Array>
                    </mxGeometry>
                </mxCell>
                <mxCell id="196" value="PC" style="whiteSpace=wrap;html=1;" parent="1" vertex="1">
                    <mxGeometry x="490" y="460" width="50" height="50" as="geometry"/>
                </mxCell>
                <mxCell id="200" style="edgeStyle=none;html=1;entryX=0;entryY=0.25;entryDx=0;entryDy=0;" parent="1" source="197" target="116" edge="1">
                    <mxGeometry relative="1" as="geometry">
                        <Array as="points">
                            <mxPoint x="950" y="445"/>
                            <mxPoint x="950" y="263"/>
                        </Array>
                    </mxGeometry>
                </mxCell>
                <mxCell id="197" value="PC" style="whiteSpace=wrap;html=1;" parent="1" vertex="1">
                    <mxGeometry x="890" y="420" width="50" height="50" as="geometry"/>
                </mxCell>
            </root>
        </mxGraphModel>
    </diagram>
    <diagram id="BnKZsg4iC8RsYvnzUsZh" name="Page-2">
        <mxGraphModel grid="1" gridSize="10" guides="1" tooltips="1" connect="1" arrows="1" page="1" fold="1" pageScale="1" pageWidth="2400" pageHeight="1200" math="0" shadow="0">
            <root>
                <mxCell id="m-9dKSi_Rmxmle-NioFV-0"/>
                <mxCell id="m-9dKSi_Rmxmle-NioFV-1" parent="m-9dKSi_Rmxmle-NioFV-0"/>
            </root>
        </mxGraphModel>
    </diagram>
</mxfile>